PathFileType	4	(X/Y/Z)	46_2_46_p0_0-607_filt_butterworth.trc
DataRate	CameraRate	NumFrames	NumMarkers	Units	OrigDataRate	OrigDataStartFrame	OrigNumFrames
59.0	59.0	5	27	m	59.0	0	607
Frame#	Time	RHip			RKnee			RAnkle			RBigToe			RSmallToe			RHeel			LHip			LKnee			LAnkle			LBigToe			LSmallToe			LHeel			Neck			Head			Nose			RShoulder			RElbow			RWrist			RThumb			RIndex			RPinky			LShoulder			LElbow			LWrist			LThumb			LIndex			LPinky			
		X1	Y1	Z1	X2	Y2	Z2	X3	Y3	Z3	X4	Y4	Z4	X5	Y5	Z5	X6	Y6	Z6	X7	Y7	Z7	X8	Y8	Z8	X9	Y9	Z9	X10	Y10	Z10	X11	Y11	Z11	X12	Y12	Z12	X13	Y13	Z13	X14	Y14	Z14	X15	Y15	Z15	X16	Y16	Z16	X17	Y17	Z17	X18	Y18	Z18	X19	Y19	Z19	X20	Y20	Z20	X21	Y21	Z21	X22	Y22	Z22	X23	Y23	Z23	X24	Y24	Z24	X25	Y25	Z25	X26	Y26	Z26	X27	Y27	Z27	
0	0.0	0.4306310076558428	0.4032076189420169	0.6507918322903152	0.3880980266555723	0.5035274600353569	1.0826777510347658	0.34921302425047596	0.5279272193981677	1.488682708387811	0.3523227329879652	0.3515027422402031	1.5148466620765755	0.41915210571481276	0.3606317745357577	1.5077118529765272	0.3156831231389386	0.625743768063895	1.5650603303512596	0.23667440364220488	0.37277983938462816	0.6393637158542891	0.228555697674595	0.3934913053178107	1.0307600624995918	0.18472455730494183	0.5268212634596595	1.4884930284804014	0.19813871099341904	0.33112242496236866	1.4988660408689198	0.13950069261088133	0.3725268520645523	1.507659037165779	0.1896745288132975	0.5746956306897335	1.5630498675775115	0.37724924255137965	0.3109620777475311	0.0930919919281226	0.400080556465051	0.32200849044764135	-0.1302077419557006	0.4139307072437929	0.21456115726827557	-0.01941250332100438	0.5169401056306223	0.3564783640131623	0.22306317355781274	0.5280239482653277	0.3613932736980756	0.4695883157165275	0.42767779217236485	0.24386918457747353	0.6464825028326499	0.36007166738315477	0.22532876057500834	0.716615637476114	0.3453986823689665	0.24949866841536666	0.7349368399905658	0.36199335178684827	0.2649740722664755	0.7339977924303549	0.21382787811989493	0.3479754056159081	0.18278121881727344	0.1928697211000151	0.2975475313683882	0.43988668639226436	0.29743303258361314	0.24257404002505933	0.6273281728772706	0.3986767888824001	0.2634630359264688	0.6863392885545709	0.40011659982728265	0.2574318946172663	0.724227659570077	0.36887275504686745	0.2728524470615849	0.7493343094271153
1	0.0169491525423728	0.4308838643619016	0.4034338539810823	0.6500122446098415	0.3863609477395997	0.49553353161178304	1.0797823690624462	0.35035855513669484	0.5286592004443778	1.4889523936266682	0.35230278691526534	0.35155270445624154	1.514847692740073	0.4196208899191296	0.3614044148744301	1.5103391701029496	0.31555251152180447	0.6259593059084751	1.5652812592380774	0.23690027744283743	0.37341429565210654	0.6421260758398912	0.22858206518998034	0.3933020054945052	1.0307211750128837	0.18880139531725887	0.5175540893500375	1.4832162748186077	0.19597519710378353	0.3334978313935982	1.498209408579272	0.13962243849923667	0.37630683260934206	1.5069719599799853	0.19090852841186987	0.5833468159977533	1.5674857634244965	0.3776694665036031	0.3111310445394098	0.09307284450155345	0.39997162290029814	0.3225000265155542	-0.1301893776153477	0.4139497728899144	0.2146552099081059	-0.01941665711160663	0.517262558427096	0.3565354264347109	0.22314683787898296	0.5279297608861185	0.3605680496947837	0.47432486157824344	0.4274172685685842	0.2440493886800305	0.6485093523780624	0.3528936279456219	0.24033175254353173	0.7207607451981525	0.339832096799829	0.27256350464511553	0.7423389514506789	0.36211249196849304	0.26817436509749054	0.7394682375996356	0.21621886426670112	0.3440968960109176	0.18108969373595368	0.19277059281006495	0.29763403476866085	0.43979837603498523	0.298276131490039	0.24908748312792042	0.6271306806159788	0.39462675211188336	0.2552420594118119	0.6887631289521668	0.39988326023929577	0.25735884953096955	0.7241789952385589	0.36802102055839087	0.27136116743873107	0.7487531798072014
2	0.0338983050847457	0.4309471024436272	0.40357323570515224	0.6501020705205681	0.3852720745599859	0.4905027399848349	1.0777904259743878	0.35043893104127566	0.5288006144608545	1.4890217336837255	0.35227963684243624	0.3515755814526143	1.5147986184513564	0.4197385879037331	0.36156194179094553	1.5109636764312933	0.3154767810509103	0.6260089535735024	1.5653535400698706	0.23703234604098672	0.3737910212071425	0.6437626131611169	0.2285201873539426	0.3933451351153995	1.0307761629936798	0.19122403684343894	0.5120451997918043	1.4800860766122064	0.19486900357769268	0.3367188016920263	1.4988367875975546	0.13985088553058217	0.3803278711043057	1.507557895646903	0.1916630627086192	0.5886611957224204	1.5702085408310893	0.37866079547466	0.3114944179039365	0.09306441666150725	0.40000690791394067	0.3225622920625285	-0.1301603814679857	0.41397128640958974	0.21468423386496704	-0.01941996145660179	0.518107924488623	0.3568069590592339	0.22322205475183007	0.5278805999479707	0.36010383135952295	0.47719770072095674	0.42726566964949053	0.2441509367571067	0.6497194770758692	0.348604359925384	0.2493401251473124	0.7231200870682593	0.3365118406986873	0.286341104515783	0.7467046650308136	0.3618831618090738	0.26849037058412223	0.7422810600986596	0.21906397252216175	0.3406059267784413	0.17948865082300658	0.19270703951946067	0.297640506060287	0.4397435897076682	0.2987373370928003	0.2507752878887267	0.6270604722208931	0.39203164388364364	0.25068106369155996	0.6903405599065485	0.39970476083168033	0.25733895937905055	0.7241446275715798	0.3671601695909429	0.2684065631457202	0.7477947968497758
3	0.0508474576271186	0.4309499798897387	0.40366114870851477	0.6507665972859117	0.3848378385643712	0.488493141084538	1.0764896829235002	0.34980003279361205	0.5285119036534005	1.488931339068962	0.3522568490429774	0.35156454122727804	1.514698791161519	0.41953127771928467	0.3611623568756491	1.509718024197126	0.31546212406114105	0.6258752922980252	1.5652614137687464	0.23706677639164606	0.3738963201468093	0.6442192452716489	0.2283646241454853	0.3936312536312588	1.0309601055304465	0.19187950866152348	0.5105718311233918	1.4792604606383029	0.19479195658195692	0.3396457389063322	1.5001499063163541	0.14008330557080748	0.38341424338275804	1.5088325911154283	0.1918555924194275	0.5900301442659249	1.5709153684094437	0.38004864802736266	0.3119922027182833	0.09306874057124083	0.4005049852701614	0.32132407837052046	-0.130143234658623	0.4139929010465903	0.21465029511307435	-0.019419432049509387	0.5194071338508918	0.357545854522474	0.22330531717486868	0.5278776213694614	0.3600198804411512	0.4780748801122545	0.4272323018004486	0.24416641919476517	0.6500524330155468	0.3474376698018584	0.2519011168363539	0.7237740651580092	0.3356114999709706	0.2901483404067442	0.7478604308852635	0.36148379388178525	0.26676526970718156	0.7429180188414408	0.2217073766159563	0.33846904880063183	0.17840212504360184	0.19292687215484802	0.2975308663016598	0.4397279116046863	0.29922586878887714	0.24788127833684565	0.6270313935596342	0.3908114804860207	0.2508931221575141	0.6910892828537485	0.39959844170293357	0.25735802658433776	0.7241321950013375	0.3663830808481949	0.2644905106549578	0.746612185528306
4	0.0677966101694915	0.43129477424671536	0.40383827674378525	0.6513353922972591	0.38469749348729637	0.48792449616257694	1.0753085818189578	0.3492806913603049	0.5282276512763405	1.4888210769955905	0.35223929651718805	0.3515303355419042	1.5145884288860871	0.4192776825280658	0.36069672257920543	1.5081833300327772	0.3154787167937996	0.6256565510536475	1.5650986909156932	0.2370645236969962	0.3738745885652772	0.6441665746512489	0.22832775744771405	0.3936625601503743	1.0310714740130693	0.19169568353247002	0.5110411296795923	1.479540881020936	0.19508870437573275	0.3410315467605643	1.5009870807273133	0.1402039872969193	0.3848128115876709	1.5097263602733288	0.19162662297491323	0.5883061990246344	1.5700427594242572	0.38113528696121834	0.3123927471470383	0.09307891488480961	0.40171059476932236	0.3181354692811562	-0.1301909747035422	0.41401007127517375	0.21461087579190272	-0.019414076564972824	0.5207559675108222	0.359335792695093	0.22346079742326508	0.52790275506596	0.36010755220364404	0.4778892696087468	0.42725633085778036	0.24414773210667257	0.6499767404928466	0.34784623540791115	0.25127223217299843	0.7242510510407735	0.33588912216245054	0.2891487964365626	0.7475593589181206	0.3612209096168672	0.2651253816973183	0.743566788950373	0.22326125135268132	0.3379109607829097	0.17801706781326848	0.1938431180753413	0.2973988401370228	0.43972686784347803	0.3005587070081077	0.24421147910552835	0.6267194982361596	0.3902022643350426	0.25459739693438854	0.6913793470385813	0.39954786443099133	0.25736682858115056	0.7241362702569522	0.3658706658013956	0.2614981320221855	0.7457108353174766
